<svg xmlns="http://www.w3.org/2000/svg" version="1.1" xmlns:xlink="http://www.w3.org/1999/xlink" xmlns:svgjs="http://svgjs.com/svgjs" width="1440" height="250" preserveAspectRatio="none" viewBox="0 0 1440 250"><g mask="url(&quot;#SvgjsMask1015&quot;)" fill="none"><path d="M37 250L287 0L348.5 0L98.5 250z" fill="url(#SvgjsLinearGradient1016)"></path><path d="M252.60000000000002 250L502.6 0L787.6 0L537.6 250z" fill="url(#SvgjsLinearGradient1016)"></path><path d="M492.20000000000005 250L742.2 0L962.7 0L712.7 250z" fill="url(#SvgjsLinearGradient1016)"></path><path d="M751.8000000000001 250L1001.8000000000001 0L1246.3000000000002 0L996.3000000000001 250z" fill="url(#SvgjsLinearGradient1016)"></path><path d="M1403 250L1153 0L1081 0L1331 250z" fill="url(#SvgjsLinearGradient1017)"></path><path d="M1166.4 250L916.4000000000001 0L821.9000000000001 0L1071.9 250z" fill="url(#SvgjsLinearGradient1017)"></path><path d="M961.8 250L711.8 0L375.79999999999995 0L625.8 250z" fill="url(#SvgjsLinearGradient1017)"></path><path d="M716.1999999999999 250L466.19999999999993 0L127.19999999999993 0L377.19999999999993 250z" fill="url(#SvgjsLinearGradient1017)"></path><path d="M1298.269677825266 250L1440 108.26967782526603L1440 250z" fill="url(#SvgjsLinearGradient1016)"></path><path d="M0 250L141.73032217473397 250L 0 108.26967782526603z" fill="url(#SvgjsLinearGradient1017)"></path></g><defs><mask id="SvgjsMask1015"><rect width="1440" height="250" fill="#ffffff"></rect></mask><linearGradient x1="0%" y1="100%" x2="100%" y2="0%" id="SvgjsLinearGradient1016"><stop stop-color="rgba(14, 27, 51, 1)" offset="0"></stop><stop stop-opacity="0" stop-color="rgba(14, 27, 51, 1)" offset="0.66"></stop></linearGradient><linearGradient x1="100%" y1="100%" x2="0%" y2="0%" id="SvgjsLinearGradient1017"><stop stop-color="rgba(14, 27, 51, 1)" offset="0"></stop><stop stop-opacity="0" stop-color="rgba(14, 27, 51, 1)" offset="0.66"></stop></linearGradient></defs></svg>