<svg id="visual" viewBox="0 0 900 600" width="900" height="600" xmlns="http://www.w3.org/2000/svg" xmlns:xlink="http://www.w3.org/1999/xlink" version="1.1"><rect x="0" y="0" width="900" height="600" fill="#001220"></rect><path d="M0 338L18.8 342.2C37.7 346.3 75.3 354.7 112.8 360.2C150.3 365.7 187.7 368.3 225.2 359C262.7 349.7 300.3 328.3 337.8 332.2C375.3 336 412.7 365 450.2 374.7C487.7 384.3 525.3 374.7 562.8 366.7C600.3 358.7 637.7 352.3 675.2 356.3C712.7 360.3 750.3 374.7 787.8 379.7C825.3 384.7 862.7 380.3 881.3 378.2L900 376L900 601L881.3 601C862.7 601 825.3 601 787.8 601C750.3 601 712.7 601 675.2 601C637.7 601 600.3 601 562.8 601C525.3 601 487.7 601 450.2 601C412.7 601 375.3 601 337.8 601C300.3 601 262.7 601 225.2 601C187.7 601 150.3 601 112.8 601C75.3 601 37.7 601 18.8 601L0 601Z" fill="#001122"></path><path d="M0 397L18.8 402C37.7 407 75.3 417 112.8 426C150.3 435 187.7 443 225.2 438.7C262.7 434.3 300.3 417.7 337.8 415.7C375.3 413.7 412.7 426.3 450.2 431.3C487.7 436.3 525.3 433.7 562.8 437.5C600.3 441.3 637.7 451.7 675.2 451.2C712.7 450.7 750.3 439.3 787.8 425C825.3 410.7 862.7 393.3 881.3 384.7L900 376L900 601L881.3 601C862.7 601 825.3 601 787.8 601C750.3 601 712.7 601 675.2 601C637.7 601 600.3 601 562.8 601C525.3 601 487.7 601 450.2 601C412.7 601 375.3 601 337.8 601C300.3 601 262.7 601 225.2 601C187.7 601 150.3 601 112.8 601C75.3 601 37.7 601 18.8 601L0 601Z" fill="#0e1f32"></path><path d="M0 461L18.8 454.3C37.7 447.7 75.3 434.3 112.8 440.3C150.3 446.3 187.7 471.7 225.2 475.7C262.7 479.7 300.3 462.3 337.8 462.8C375.3 463.3 412.7 481.7 450.2 480.7C487.7 479.7 525.3 459.3 562.8 448.5C600.3 437.7 637.7 436.3 675.2 442C712.7 447.7 750.3 460.3 787.8 459C825.3 457.7 862.7 442.3 881.3 434.7L900 427L900 601L881.3 601C862.7 601 825.3 601 787.8 601C750.3 601 712.7 601 675.2 601C637.7 601 600.3 601 562.8 601C525.3 601 487.7 601 450.2 601C412.7 601 375.3 601 337.8 601C300.3 601 262.7 601 225.2 601C187.7 601 150.3 601 112.8 601C75.3 601 37.7 601 18.8 601L0 601Z" fill="#1c2d43"></path><path d="M0 523L18.8 521.7C37.7 520.3 75.3 517.7 112.8 512.3C150.3 507 187.7 499 225.2 492.3C262.7 485.7 300.3 480.3 337.8 487.7C375.3 495 412.7 515 450.2 513.8C487.7 512.7 525.3 490.3 562.8 487.8C600.3 485.3 637.7 502.7 675.2 509C712.7 515.3 750.3 510.7 787.8 511.7C825.3 512.7 862.7 519.3 881.3 522.7L900 526L900 601L881.3 601C862.7 601 825.3 601 787.8 601C750.3 601 712.7 601 675.2 601C637.7 601 600.3 601 562.8 601C525.3 601 487.7 601 450.2 601C412.7 601 375.3 601 337.8 601C300.3 601 262.7 601 225.2 601C187.7 601 150.3 601 112.8 601C75.3 601 37.7 601 18.8 601L0 601Z" fill="#2a3c55"></path><path d="M0 550L18.8 544.3C37.7 538.7 75.3 527.3 112.8 524.8C150.3 522.3 187.7 528.7 225.2 531.8C262.7 535 300.3 535 337.8 539.8C375.3 544.7 412.7 554.3 450.2 554.5C487.7 554.7 525.3 545.3 562.8 543.8C600.3 542.3 637.7 548.7 675.2 547.8C712.7 547 750.3 539 787.8 538.2C825.3 537.3 862.7 543.7 881.3 546.8L900 550L900 601L881.3 601C862.7 601 825.3 601 787.8 601C750.3 601 712.7 601 675.2 601C637.7 601 600.3 601 562.8 601C525.3 601 487.7 601 450.2 601C412.7 601 375.3 601 337.8 601C300.3 601 262.7 601 225.2 601C187.7 601 150.3 601 112.8 601C75.3 601 37.7 601 18.8 601L0 601Z" fill="#384b67"></path></svg>