<svg xmlns="http://www.w3.org/2000/svg" version="1.1" xmlns:xlink="http://www.w3.org/1999/xlink" xmlns:svgjs="http://svgjs.com/svgjs" width="1440" height="560" preserveAspectRatio="none" viewBox="0 0 1440 560"><g mask="url(&quot;#SvgjsMask1054&quot;)" fill="none"><rect width="1440" height="560" x="0" y="0" fill="rgba(24, 24, 41, 1)"></rect><path d="M135 455L-277 43" stroke-width="10" stroke="url(#SvgjsLinearGradient1055)" stroke-linecap="round" class="BottomRight"></path><path d="M1070 132L1406 468" stroke-width="6" stroke="url(#SvgjsLinearGradient1056)" stroke-linecap="round" class="TopLeft"></path><path d="M642 61L954 373" stroke-width="8" stroke="url(#SvgjsLinearGradient1056)" stroke-linecap="round" class="TopLeft"></path><path d="M811 188L959 336" stroke-width="10" stroke="url(#SvgjsLinearGradient1055)" stroke-linecap="round" class="BottomRight"></path><path d="M1324 65L1646 387" stroke-width="6" stroke="url(#SvgjsLinearGradient1056)" stroke-linecap="round" class="TopLeft"></path><path d="M226 488L603 865" stroke-width="8" stroke="url(#SvgjsLinearGradient1056)" stroke-linecap="round" class="TopLeft"></path><path d="M41 323L-235 47" stroke-width="6" stroke="url(#SvgjsLinearGradient1056)" stroke-linecap="round" class="TopLeft"></path><path d="M552 181L941 570" stroke-width="8" stroke="url(#SvgjsLinearGradient1055)" stroke-linecap="round" class="BottomRight"></path><path d="M379 318L795 734" stroke-width="8" stroke="url(#SvgjsLinearGradient1056)" stroke-linecap="round" class="TopLeft"></path><path d="M875 421L518 64" stroke-width="6" stroke="url(#SvgjsLinearGradient1055)" stroke-linecap="round" class="BottomRight"></path><path d="M1248 121L1630 503" stroke-width="6" stroke="url(#SvgjsLinearGradient1056)" stroke-linecap="round" class="TopLeft"></path><path d="M821 495L535 209" stroke-width="6" stroke="url(#SvgjsLinearGradient1056)" stroke-linecap="round" class="TopLeft"></path><path d="M782 383L402 3" stroke-width="10" stroke="url(#SvgjsLinearGradient1055)" stroke-linecap="round" class="BottomRight"></path><path d="M306 432L19 145" stroke-width="6" stroke="url(#SvgjsLinearGradient1056)" stroke-linecap="round" class="TopLeft"></path><path d="M1383 489L1695 801" stroke-width="10" stroke="url(#SvgjsLinearGradient1056)" stroke-linecap="round" class="TopLeft"></path><path d="M1169 524L753 108" stroke-width="6" stroke="url(#SvgjsLinearGradient1055)" stroke-linecap="round" class="BottomRight"></path><path d="M997 191L1336 530" stroke-width="8" stroke="url(#SvgjsLinearGradient1056)" stroke-linecap="round" class="TopLeft"></path><path d="M72 391L-338 -19" stroke-width="8" stroke="url(#SvgjsLinearGradient1056)" stroke-linecap="round" class="TopLeft"></path><path d="M638 516L962 840" stroke-width="6" stroke="url(#SvgjsLinearGradient1056)" stroke-linecap="round" class="TopLeft"></path><path d="M539 210L857 528" stroke-width="6" stroke="url(#SvgjsLinearGradient1055)" stroke-linecap="round" class="BottomRight"></path><path d="M887 110L1104 327" stroke-width="8" stroke="url(#SvgjsLinearGradient1056)" stroke-linecap="round" class="TopLeft"></path><path d="M731 489L337 95" stroke-width="10" stroke="url(#SvgjsLinearGradient1055)" stroke-linecap="round" class="BottomRight"></path><path d="M55 294L339 578" stroke-width="6" stroke="url(#SvgjsLinearGradient1055)" stroke-linecap="round" class="BottomRight"></path><path d="M1395 223L1587 415" stroke-width="8" stroke="url(#SvgjsLinearGradient1055)" stroke-linecap="round" class="BottomRight"></path><path d="M540 121L957 538" stroke-width="8" stroke="url(#SvgjsLinearGradient1056)" stroke-linecap="round" class="TopLeft"></path><path d="M479 181L299 1" stroke-width="8" stroke="url(#SvgjsLinearGradient1056)" stroke-linecap="round" class="TopLeft"></path><path d="M785 123L462 -200" stroke-width="8" stroke="url(#SvgjsLinearGradient1056)" stroke-linecap="round" class="TopLeft"></path><path d="M201 29L383 211" stroke-width="6" stroke="url(#SvgjsLinearGradient1056)" stroke-linecap="round" class="TopLeft"></path><path d="M828 218L601 -9" stroke-width="6" stroke="url(#SvgjsLinearGradient1056)" stroke-linecap="round" class="TopLeft"></path><path d="M915 286L731 102" stroke-width="10" stroke="url(#SvgjsLinearGradient1055)" stroke-linecap="round" class="BottomRight"></path><path d="M915 37L608 -270" stroke-width="6" stroke="url(#SvgjsLinearGradient1055)" stroke-linecap="round" class="BottomRight"></path><path d="M490 467L640 617" stroke-width="8" stroke="url(#SvgjsLinearGradient1055)" stroke-linecap="round" class="BottomRight"></path><path d="M1153 27L848 -278" stroke-width="8" stroke="url(#SvgjsLinearGradient1055)" stroke-linecap="round" class="BottomRight"></path><path d="M447 90L659 302" stroke-width="6" stroke="url(#SvgjsLinearGradient1055)" stroke-linecap="round" class="BottomRight"></path><path d="M892 252L487 -153" stroke-width="6" stroke="url(#SvgjsLinearGradient1055)" stroke-linecap="round" class="BottomRight"></path><path d="M1218 408L822 12" stroke-width="8" stroke="url(#SvgjsLinearGradient1055)" stroke-linecap="round" class="BottomRight"></path><path d="M380 24L659 303" stroke-width="6" stroke="url(#SvgjsLinearGradient1056)" stroke-linecap="round" class="TopLeft"></path><path d="M457 426L309 278" stroke-width="6" stroke="url(#SvgjsLinearGradient1056)" stroke-linecap="round" class="TopLeft"></path><path d="M1403 449L1757 803" stroke-width="10" stroke="url(#SvgjsLinearGradient1055)" stroke-linecap="round" class="BottomRight"></path></g><defs><mask id="SvgjsMask1054"><rect width="1440" height="560" fill="#ffffff"></rect></mask><linearGradient x1="0%" y1="0%" x2="100%" y2="100%" id="SvgjsLinearGradient1055"><stop stop-color="rgba(255, 122, 33, 0)" offset="0"></stop><stop stop-color="rgba(255, 122, 33, 1)" offset="1"></stop></linearGradient><linearGradient x1="100%" y1="100%" x2="0%" y2="0%" id="SvgjsLinearGradient1056"><stop stop-color="rgba(255, 122, 33, 0)" offset="0"></stop><stop stop-color="rgba(255, 122, 33, 1)" offset="1"></stop></linearGradient></defs></svg>