<svg xmlns="http://www.w3.org/2000/svg" version="1.1" xmlns:xlink="http://www.w3.org/1999/xlink" xmlns:svgjs="http://svgjs.com/svgjs" width="1446" height="250" preserveAspectRatio="none" viewBox="0 0 1446 250"><g mask="url(&quot;#SvgjsMask1465&quot;)" fill="none"><rect width="1446" height="250" x="0" y="0" fill="rgba(38, 51, 65, 1)"></rect><path d="M23 250L273 0L616.5 0L366.5 250z" fill="url(#SvgjsLinearGradient1466)"></path><path d="M257.59000000000003 250L507.59000000000003 0L786.59 0L536.59 250z" fill="url(#SvgjsLinearGradient1466)"></path><path d="M481.18 250L731.1800000000001 0L941.1800000000001 0L691.1800000000001 250z" fill="url(#SvgjsLinearGradient1466)"></path><path d="M735.77 250L985.77 0L1327.77 0L1077.77 250z" fill="url(#SvgjsLinearGradient1466)"></path><path d="M1408 250L1158 0L909 0L1159 250z" fill="url(#SvgjsLinearGradient1467)"></path><path d="M1200.41 250L950.4100000000001 0L903.9100000000001 0L1153.91 250z" fill="url(#SvgjsLinearGradient1467)"></path><path d="M920.8199999999999 250L670.8199999999999 0L456.31999999999994 0L706.3199999999999 250z" fill="url(#SvgjsLinearGradient1467)"></path><path d="M704.23 250L454.23 0L232.23000000000002 0L482.23 250z" fill="url(#SvgjsLinearGradient1467)"></path><path d="M1240.1038505230229 250L1446 44.103850523022885L1446 250z" fill="url(#SvgjsLinearGradient1466)"></path><path d="M0 250L205.89614947697712 250L 0 44.103850523022885z" fill="url(#SvgjsLinearGradient1467)"></path></g><defs><mask id="SvgjsMask1465"><rect width="1446" height="250" fill="#ffffff"></rect></mask><linearGradient x1="0%" y1="100%" x2="100%" y2="0%" id="SvgjsLinearGradient1466"><stop stop-color="rgba(255, 181, 75, 0.62)" offset="0"></stop><stop stop-opacity="0" stop-color="rgba(255, 181, 75, 0.62)" offset="0.66"></stop></linearGradient><linearGradient x1="100%" y1="100%" x2="0%" y2="0%" id="SvgjsLinearGradient1467"><stop stop-color="rgba(255, 181, 75, 0.62)" offset="0"></stop><stop stop-opacity="0" stop-color="rgba(255, 181, 75, 0.62)" offset="0.66"></stop></linearGradient></defs></svg>