<svg xmlns="http://www.w3.org/2000/svg" version="1.1" xmlns:xlink="http://www.w3.org/1999/xlink" xmlns:svgjs="http://svgjs.com/svgjs" width="1440" height="250" preserveAspectRatio="none" viewBox="0 0 1440 250"><g mask="url(&quot;#SvgjsMask2227&quot;)" fill="none"><rect width="1440" height="250" x="0" y="0" fill="url(#SvgjsLinearGradient2228)"></rect><path d="M16 250L266 0L617 0L367 250z" fill="url(#SvgjsLinearGradient2229)"></path><path d="M268.6 250L518.6 0L683.6 0L433.6 250z" fill="url(#SvgjsLinearGradient2229)"></path><path d="M493.20000000000005 250L743.2 0L957.7 0L707.7 250z" fill="url(#SvgjsLinearGradient2229)"></path><path d="M748.8000000000001 250L998.8000000000001 0L1316.8000000000002 0L1066.8000000000002 250z" fill="url(#SvgjsLinearGradient2229)"></path><path d="M1431 250L1181 0L1061 0L1311 250z" fill="url(#SvgjsLinearGradient2230)"></path><path d="M1183.4 250L933.4000000000001 0L826.9000000000001 0L1076.9 250z" fill="url(#SvgjsLinearGradient2230)"></path><path d="M947.8 250L697.8 0L453.29999999999995 0L703.3 250z" fill="url(#SvgjsLinearGradient2230)"></path><path d="M704.1999999999999 250L454.19999999999993 0L194.69999999999993 0L444.69999999999993 250z" fill="url(#SvgjsLinearGradient2230)"></path><path d="M1204.0019034233494 250L1440 14.00190342334949L1440 250z" fill="url(#SvgjsLinearGradient2229)"></path><path d="M0 250L235.9980965766505 250L 0 14.00190342334949z" fill="url(#SvgjsLinearGradient2230)"></path></g><defs><mask id="SvgjsMask2227"><rect width="1440" height="250" fill="#ffffff"></rect></mask><linearGradient x1="20.66%" y1="-119%" x2="79.34%" y2="219%" gradientUnits="userSpaceOnUse" id="SvgjsLinearGradient2228"><stop stop-color="rgba(14, 48, 71, 1)" offset="0"></stop><stop stop-color="rgba(158, 0, 9, 1)" offset="1"></stop></linearGradient><linearGradient x1="0%" y1="100%" x2="100%" y2="0%" id="SvgjsLinearGradient2229"><stop stop-color="rgba(14, 27, 51, 1)" offset="0"></stop><stop stop-opacity="0" stop-color="rgba(14, 27, 51, 1)" offset="0.66"></stop></linearGradient><linearGradient x1="100%" y1="100%" x2="0%" y2="0%" id="SvgjsLinearGradient2230"><stop stop-color="rgba(14, 27, 51, 1)" offset="0"></stop><stop stop-opacity="0" stop-color="rgba(14, 27, 51, 1)" offset="0.66"></stop></linearGradient></defs></svg>