<svg xmlns="http://www.w3.org/2000/svg" version="1.1" xmlns:xlink="http://www.w3.org/1999/xlink" xmlns:svgjs="http://svgjs.com/svgjs" width="1440" height="575" preserveAspectRatio="none" viewBox="0 0 1440 575"><g mask="url(&quot;#SvgjsMask1360&quot;)" fill="none"><rect width="1440" height="575" x="0" y="0" fill="url(#SvgjsLinearGradient1361)"></rect><path d="M0 0L379.52 0L0 236.82z" fill="rgba(255, 255, 255, .1)"></path><path d="M0 236.82L379.52 0L669.74 0L0 255.48z" fill="rgba(255, 255, 255, .075)"></path><path d="M0 255.48L669.74 0L758.9200000000001 0L0 449.89z" fill="rgba(255, 255, 255, .05)"></path><path d="M0 449.89L758.9200000000001 0L902.0400000000001 0L0 530.34z" fill="rgba(255, 255, 255, .025)"></path><path d="M1440 575L1361.82 575L1440 344.81z" fill="rgba(0, 0, 0, .1)"></path><path d="M1440 344.81L1361.82 575L1127.05 575L1440 263.52z" fill="rgba(0, 0, 0, .075)"></path><path d="M1440 263.52L1127.05 575L1100.32 575L1440 181.51999999999998z" fill="rgba(0, 0, 0, .05)"></path><path d="M1440 181.51999999999998L1100.32 575L1093.51 575L1440 158.59999999999997z" fill="rgba(0, 0, 0, .025)"></path></g><defs><mask id="SvgjsMask1360"><rect width="1440" height="575" fill="#ffffff"></rect></mask><linearGradient x1="50%" y1="100%" x2="50%" y2="0%" gradientUnits="userSpaceOnUse" id="SvgjsLinearGradient1361"><stop stop-color="rgba(20, 27, 50, 1)" offset="0"></stop><stop stop-color="rgba(158, 0, 9, 1)" offset="1"></stop></linearGradient></defs></svg>