<svg xmlns="http://www.w3.org/2000/svg" version="1.1" xmlns:xlink="http://www.w3.org/1999/xlink" xmlns:svgjs="http://svgjs.com/svgjs" width="1440" height="575" preserveAspectRatio="none" viewBox="0 0 1440 575"><g mask="url(&quot;#SvgjsMask2654&quot;)" fill="none"><rect width="1440" height="575" x="0" y="0" fill="url(#SvgjsLinearGradient2655)"></rect><path d="M1440 0L1161.46 0L1440 86.58z" fill="rgba(255, 255, 255, .1)"></path><path d="M1161.46 0L1440 86.58L1440 107.96L594.32 0z" fill="rgba(255, 255, 255, .075)"></path><path d="M594.3199999999999 0L1440 107.96L1440 373.65999999999997L233.9099999999999 0z" fill="rgba(255, 255, 255, .05)"></path><path d="M233.90999999999985 0L1440 373.65999999999997L1440 490.28L179.05999999999986 0z" fill="rgba(255, 255, 255, .025)"></path><path d="M0 575L317.7 575L0 536.11z" fill="rgba(0, 0, 0, .1)"></path><path d="M0 536.11L317.7 575L705.66 575L0 317.75z" fill="rgba(0, 0, 0, .075)"></path><path d="M0 317.75L705.66 575L1136.1399999999999 575L0 287.04z" fill="rgba(0, 0, 0, .05)"></path><path d="M0 287.04L1136.1399999999999 575L1161.9299999999998 575L0 201.09000000000003z" fill="rgba(0, 0, 0, .025)"></path></g><defs><mask id="SvgjsMask2654"><rect width="1440" height="575" fill="#ffffff"></rect></mask><linearGradient x1="50%" y1="0%" x2="50%" y2="100%" gradientUnits="userSpaceOnUse" id="SvgjsLinearGradient2655"><stop stop-color="rgba(20, 27, 50, 1)" offset="1"></stop><stop stop-color="rgba(158, 0, 9, 1)" offset="1"></stop></linearGradient></defs></svg>