<svg xmlns="http://www.w3.org/2000/svg" version="1.1" xmlns:xlink="http://www.w3.org/1999/xlink" xmlns:svgjs="http://svgjs.com/svgjs" width="1440" height="575" preserveAspectRatio="none" viewBox="0 0 1440 575"><g mask="url(&quot;#SvgjsMask1048&quot;)" fill="none"><rect width="1440" height="575" x="0" y="0" fill="url(#SvgjsLinearGradient1049)"></rect><path d="M0 0L196.09 0L0 99.57z" fill="rgba(255, 255, 255, .1)"></path><path d="M0 99.57L196.09 0L658.23 0L0 269.94z" fill="rgba(255, 255, 255, .075)"></path><path d="M0 269.94L658.23 0L659.94 0L0 344.53z" fill="rgba(255, 255, 255, .05)"></path><path d="M0 344.53L659.94 0L664.11 0L0 439.42999999999995z" fill="rgba(255, 255, 255, .025)"></path><path d="M1440 575L1401.86 575L1440 336.73z" fill="rgba(0, 0, 0, .1)"></path><path d="M1440 336.73L1401.86 575L1031 575L1440 167.4z" fill="rgba(0, 0, 0, .075)"></path><path d="M1440 167.39999999999998L1031 575L844.5699999999999 575L1440 83.79999999999998z" fill="rgba(0, 0, 0, .05)"></path><path d="M1440 83.79999999999995L844.5699999999999 575L333.5199999999999 575L1440 75.79999999999995z" fill="rgba(0, 0, 0, .025)"></path></g><defs><mask id="SvgjsMask1048"><rect width="1440" height="575" fill="#ffffff"></rect></mask><linearGradient x1="15.02%" y1="-37.61%" x2="84.98%" y2="137.61%" gradientUnits="userSpaceOnUse" id="SvgjsLinearGradient1049"><stop stop-color="rgba(31, 114, 25, 1)" offset="0.03"></stop><stop stop-color="rgba(216, 25, 25, 1)" offset="0.97"></stop></linearGradient></defs></svg>