<svg xmlns="http://www.w3.org/2000/svg" version="1.1" xmlns:xlink="http://www.w3.org/1999/xlink" xmlns:svgjs="http://svgjs.com/svgjs" width="1440" height="560" preserveAspectRatio="none" viewBox="0 0 1440 560"><g mask="url(&quot;#SvgjsMask1002&quot;)" fill="none"><rect width="1440" height="560" x="0" y="0" fill="rgba(21, 67, 96, 1)"></rect><path d="M0,415.58C76.403,395.858,151.581,381.613,220.113,342.502C291.822,301.578,353.268,249.474,404.507,184.732C468.667,103.663,569.16,22.616,554.246,-79.689C539.327,-182.026,419.864,-231.043,335.23,-290.478C267.867,-337.784,194.831,-372.448,114.148,-388.753C38.745,-403.991,-37.153,-399.334,-111.819,-380.819C-189.186,-361.634,-256.017,-322.796,-323.42,-280.245C-416.949,-221.201,-542.491,-186.89,-582.411,-83.738C-622.741,20.473,-573.636,139.168,-524.593,239.574C-476.379,338.283,-411.817,443.798,-307.668,478.741C-206.359,512.731,-103.467,442.289,0,415.58" fill="#11364d"></path><path d="M1440 1109.495C1541.5430000000001 1095.12 1572.1390000000001 954.773 1662.317 905.932 1764.473 850.6030000000001 1921.01 904.527 1990.435 811.375 2057.311 721.643 2000.451 592.269 1977.759 482.682 1956.307 379.084 1929.487 275.786 1862.563 193.84699999999998 1794.455 110.457 1701.796 50.54000000000002 1598.904 18.82299999999998 1495.123-13.168000000000006 1376.494-35.124000000000024 1279.7350000000001 14.187999999999988 1185.871 62.02499999999998 1158.2649999999999 178.99599999999998 1105.591 270.233 1063.132 343.776 1020.8199999999999 414.301 1001.056 496.889 979.636 586.394 955.5419999999999 680.417 986.706 767.012 1018.904 856.479 1097.319 917.855 1173.184 975.174 1254.273 1036.44 1339.372 1123.74 1440 1109.495" fill="#195073"></path></g><defs><mask id="SvgjsMask1002"><rect width="1440" height="560" fill="#ffffff"></rect></mask></defs></svg>