<svg xmlns="http://www.w3.org/2000/svg" version="1.1" xmlns:xlink="http://www.w3.org/1999/xlink" xmlns:svgjs="http://svgjs.com/svgjs" width="1440" height="575" preserveAspectRatio="none" viewBox="0 0 1440 575"><g mask="url(&quot;#SvgjsMask1340&quot;)" fill="none"><rect width="1440" height="575" x="0" y="0" fill="url(#SvgjsLinearGradient1341)"></rect><path d="M1440 0L890.8 0L1440 126.17z" fill="rgba(255, 255, 255, .1)"></path><path d="M890.8 0L1440 126.17L1440 168.3L408.52 0z" fill="rgba(255, 255, 255, .075)"></path><path d="M408.52 0L1440 168.3L1440 360.55L268.65 0z" fill="rgba(255, 255, 255, .05)"></path><path d="M268.6500000000001 0L1440 360.55L1440 456.57L252.3600000000001 0z" fill="rgba(255, 255, 255, .025)"></path><path d="M0 575L550.1 575L0 481.71z" fill="rgba(0, 0, 0, .1)"></path><path d="M0 481.71L550.1 575L599.72 575L0 308.28z" fill="rgba(0, 0, 0, .075)"></path><path d="M0 308.28L599.72 575L1018.96 575L0 203.20999999999998z" fill="rgba(0, 0, 0, .05)"></path><path d="M0 203.20999999999998L1018.96 575L1210.43 575L0 68.01999999999998z" fill="rgba(0, 0, 0, .025)"></path></g><defs><mask id="SvgjsMask1340"><rect width="1440" height="575" fill="#ffffff"></rect></mask><linearGradient x1="50%" y1="100%" x2="50%" y2="0%" gradientUnits="userSpaceOnUse" id="SvgjsLinearGradient1341"><stop stop-color="rgba(158, 0, 9, 1)" offset="0"></stop><stop stop-color="rgba(31, 42, 77, 1)" offset="0"></stop></linearGradient></defs></svg>