<svg xmlns="http://www.w3.org/2000/svg" version="1.1" xmlns:xlink="http://www.w3.org/1999/xlink" xmlns:svgjs="http://svgjs.com/svgjs" width="1440" height="250" preserveAspectRatio="none" viewBox="0 0 1440 250"><g mask="url(&quot;#SvgjsMask1042&quot;)" fill="none"><rect width="1440" height="250" x="0" y="0" fill="rgba(15, 36, 71, 1)"></rect><path d="M43 250L293 0L365 0L115 250z" fill="url(#SvgjsLinearGradient1043)"></path><path d="M279.6 250L529.6 0L657.1 0L407.1 250z" fill="url(#SvgjsLinearGradient1043)"></path><path d="M516.2 250L766.2 0L937.2 0L687.2 250z" fill="url(#SvgjsLinearGradient1043)"></path><path d="M745.8000000000001 250L995.8000000000001 0L1187.8000000000002 0L937.8000000000001 250z" fill="url(#SvgjsLinearGradient1043)"></path><path d="M1412 250L1162 0L929.5 0L1179.5 250z" fill="url(#SvgjsLinearGradient1044)"></path><path d="M1156.4 250L906.4000000000001 0L637.9000000000001 0L887.9000000000001 250z" fill="url(#SvgjsLinearGradient1044)"></path><path d="M923.8 250L673.8 0L601.8 0L851.8 250z" fill="url(#SvgjsLinearGradient1044)"></path><path d="M709.1999999999999 250L459.19999999999993 0L409.69999999999993 0L659.6999999999999 250z" fill="url(#SvgjsLinearGradient1044)"></path><path d="M1192.8667645891944 250L1440 2.8667645891943607L1440 250z" fill="url(#SvgjsLinearGradient1043)"></path><path d="M0 250L247.13323541080564 250L 0 2.8667645891943607z" fill="url(#SvgjsLinearGradient1044)"></path></g><defs><mask id="SvgjsMask1042"><rect width="1440" height="250" fill="#ffffff"></rect></mask><linearGradient x1="0%" y1="100%" x2="100%" y2="0%" id="SvgjsLinearGradient1043"><stop stop-color="rgba(32, 53, 98, 0.41)" offset="0"></stop><stop stop-opacity="0" stop-color="rgba(32, 53, 98, 0.41)" offset="0.66"></stop></linearGradient><linearGradient x1="100%" y1="100%" x2="0%" y2="0%" id="SvgjsLinearGradient1044"><stop stop-color="rgba(32, 53, 98, 0.41)" offset="0"></stop><stop stop-opacity="0" stop-color="rgba(32, 53, 98, 0.41)" offset="0.66"></stop></linearGradient></defs></svg>