<svg xmlns="http://www.w3.org/2000/svg" version="1.1" xmlns:xlink="http://www.w3.org/1999/xlink" xmlns:svgjs="http://svgjs.com/svgjs" width="1440" height="575" preserveAspectRatio="none" viewBox="0 0 1440 575"><g mask="url(&quot;#SvgjsMask1034&quot;)" fill="none"><rect width="1440" height="575" x="0" y="0" fill="url(#SvgjsLinearGradient1035)"></rect><path d="M1440 0L1192.18 0L1440 227.65z" fill="rgba(255, 255, 255, .1)"></path><path d="M1192.18 0L1440 227.65L1440 294.04L854.8900000000001 0z" fill="rgba(255, 255, 255, .075)"></path><path d="M854.89 0L1440 294.04L1440 381.53000000000003L833.97 0z" fill="rgba(255, 255, 255, .05)"></path><path d="M833.97 0L1440 381.53000000000003L1440 399.31000000000006L304.97 0z" fill="rgba(255, 255, 255, .025)"></path><path d="M0 575L420.88 575L0 523.43z" fill="rgba(0, 0, 0, .1)"></path><path d="M0 523.43L420.88 575L914.3299999999999 575L0 263.72999999999996z" fill="rgba(0, 0, 0, .075)"></path><path d="M0 263.73L914.3299999999999 575L1051.83 575L0 138.52000000000004z" fill="rgba(0, 0, 0, .05)"></path><path d="M0 138.52000000000004L1051.83 575L1163.04 575L0 53.37000000000003z" fill="rgba(0, 0, 0, .025)"></path></g><defs><mask id="SvgjsMask1034"><rect width="1440" height="575" fill="#ffffff"></rect></mask><linearGradient x1="50%" y1="100%" x2="50%" y2="0%" gradientUnits="userSpaceOnUse" id="SvgjsLinearGradient1035"><stop stop-color="rgba(20, 27, 50, 1)" offset="1"></stop><stop stop-color="rgba(158, 0, 9, 1)" offset="1"></stop></linearGradient></defs></svg>