<svg xmlns="http://www.w3.org/2000/svg" version="1.1" xmlns:xlink="http://www.w3.org/1999/xlink" xmlns:svgjs="http://svgjs.com/svgjs" width="1440" height="575" preserveAspectRatio="none" viewBox="0 0 1440 575"><g mask="url(&quot;#SvgjsMask2994&quot;)" fill="none"><rect width="1440" height="575" x="0" y="0" fill="url(#SvgjsLinearGradient2995)"></rect><path d="M0 0L33.5 0L0 258.46z" fill="rgba(255, 255, 255, .1)"></path><path d="M0 258.46L33.5 0L81.15 0L0 272.52z" fill="rgba(255, 255, 255, .075)"></path><path d="M0 272.52L81.15 0L412.88 0L0 435.93999999999994z" fill="rgba(255, 255, 255, .05)"></path><path d="M0 435.93999999999994L412.88 0L647.26 0L0 525.17z" fill="rgba(255, 255, 255, .025)"></path><path d="M1440 575L971.23 575L1440 374.55z" fill="rgba(0, 0, 0, .1)"></path><path d="M1440 374.55L971.23 575L665.3199999999999 575L1440 185.35000000000002z" fill="rgba(0, 0, 0, .075)"></path><path d="M1440 185.35000000000002L665.3199999999999 575L640.0999999999999 575L1440 74.32000000000002z" fill="rgba(0, 0, 0, .05)"></path><path d="M1440 74.32000000000005L640.0999999999999 575L625.7299999999999 575L1440 61.62000000000005z" fill="rgba(0, 0, 0, .025)"></path></g><defs><mask id="SvgjsMask2994"><rect width="1440" height="575" fill="#ffffff"></rect></mask><linearGradient x1="15.02%" y1="-37.61%" x2="84.98%" y2="137.61%" gradientUnits="userSpaceOnUse" id="SvgjsLinearGradient2995"><stop stop-color="rgba(158, 0, 9, 1)" offset="0"></stop><stop stop-color="rgba(20, 27, 50, 1)" offset="0"></stop></linearGradient></defs></svg>